<?xml version="1.0" standalone="no"?>
<!DOCTYPE svg PUBLIC "-//W3C//DTD SVG 20010904//EN"
 "http://www.w3.org/TR/2001/REC-SVG-20010904/DTD/svg10.dtd">
<svg version="1.0" xmlns="http://www.w3.org/2000/svg"
 width="512.000000pt" height="512.000000pt" viewBox="0 0 512.000000 512.000000"
 preserveAspectRatio="xMidYMid meet">
<metadata>
Created by potrace 1.14, written by Peter Selinger 2001-2017
</metadata>
<g transform="translate(0.000000,512.000000) scale(0.100000,-0.100000)"
fill="#000000" stroke="none">
<path d="M0 2560 l0 -2560 2560 0 2560 0 0 2560 0 2560 -2560 0 -2560 0 0
-2560z m1849 1388 c61 -84 178 -245 261 -358 83 -113 200 -272 260 -355 60
-82 179 -244 264 -360 85 -115 171 -234 192 -262 l36 -53 -36 -52 c-21 -29
-107 -147 -192 -263 -85 -115 -204 -277 -264 -360 -60 -82 -177 -242 -260
-355 -83 -113 -200 -274 -261 -357 l-111 -153 -520 0 c-326 0 -518 4 -516 10
2 5 147 206 323 446 437 597 568 776 685 936 55 75 100 142 100 148 0 6 -45
73 -100 148 -117 160 -248 339 -685 936 -176 240 -321 441 -323 446 -2 6 190
10 516 10 l520 0 111 -152z m2013 -613 c311 -424 557 -768 555 -777 -2 -21
-1104 -1528 -1121 -1534 -6 -2 -242 -3 -524 -2 l-513 3 73 100 c41 55 161 219
268 365 107 146 324 443 484 660 159 217 290 402 290 410 0 8 -131 193 -290
410 -160 217 -377 514 -484 660 -106 146 -223 306 -260 355 -36 50 -70 96 -74
103 -6 10 97 12 516 10 l523 -3 557 -760z"/>
</g>
</svg>
